# xmcd
# 
# Track frame offsets:
#     182
#     38807
#     67805
#     102522
#     165530
#     246002
#     284200
# 
# Disc length: 4317
# 
# Revision: 0
# Processed by: cddbd v1.5.2PL0 Copyright (c) Steve Scherf et al.
# Submitted via: BonkEnc v1.0.8
# 
DISCID=5f10db07
DTITLE=Lluis Vidal - Con Orq. Cambra Teatre Lliure
DYEAR=1995
DGENRE=Contemporary Jazz
TTITLE0=Havanera
TTITLE1=Milikituli
TTITLE2=El Agarejo
TTITLE3=El Gegant I El Cargol
TTITLE4=Suite Portugalia
TTITLE5=El Escatime
TTITLE6=Ball De Capvespre
EXTD=YEAR: 1995
EXTT0=
EXTT1=
EXTT2=
EXTT3=
EXTT4=
EXTT5=
EXTT6=
PLAYORDER=
